# xmcd
#
# Track frame offsets: 
#        150
#        19678
#        33526
#        54140
#        75968
#        96968
#        115410
#        132587
#        152712
#        167985
#        183002
#        200158
#
# Disc length: 2918 seconds
#
# Revision: 4
# Processed by: cddbd v1.5.2PL0 Copyright (c) Steve Scherf et al.
# Submitted via: ExactAudioCopy v0.99pb4
#
DISCID=980b640c
DTITLE=Court Yard Hounds - Court Yard Hounds
DYEAR=2010
DGENRE=Country
TTITLE0=Skyline
TTITLE1=The Coast
TTITLE2=Delight (Something New Under the Sun)
TTITLE3=See You In The Spring [Duet with Jakob Dylan]
TTITLE4=Ain't No Son
TTITLE5=Fairytale
TTITLE6=I Miss You
TTITLE7=Gracefully
TTITLE8=April's Love
TTITLE9=Then Again
TTITLE10=It Didn't Make A Sound
TTITLE11=Fear Of Wasted Time
EXTD=
EXTT0=
EXTT1=
EXTT2=
EXTT3=
EXTT4=
EXTT5=
EXTT6=
EXTT7=
EXTT8=
EXTT9=
EXTT10=
EXTT11=
PLAYORDER=
